<svg viewBox="0 0 136 133" xmlns="http://www.w3.org/2000/svg" fill-rule="evenodd" clip-rule="evenodd" stroke-linejoin="round" stroke-miterlimit="2"><g transform="matrix(.7147 0 0 .72388 -391.072 -309.532)"><path fill="none" d="M547.182 427.604h189.739v182.875H547.182z"/><clipPath id="a"><path d="M547.182 427.604h189.739v182.875H547.182z"/></clipPath><g clip-path="url(#a)"><path d="M642.046 427.533c-52.44 0-94.958 41.979-94.958 93.766 0 41.426 27.208 76.567 64.946 88.971 4.75.858 6.482-2.037 6.482-4.524 0-2.222-.081-8.122-.128-15.944-26.415 5.664-31.989-12.571-31.989-12.571-4.32-10.828-10.546-13.711-10.546-13.711-8.622-5.82.653-5.705.653-5.705 9.532.668 14.546 9.665 14.546 9.665 8.47 14.327 22.23 10.188 27.64 7.794.862-6.062 3.31-10.194 6.027-12.537-21.086-2.366-43.258-10.413-43.258-46.342 0-10.234 3.702-18.604 9.777-25.16-.98-2.371-4.238-11.903.927-24.814 0 0 7.975-2.521 26.118 9.612 7.573-2.077 15.7-3.12 23.775-3.154 8.062.035 16.19 1.077 23.774 3.154 18.131-12.133 26.09-9.612 26.09-9.612 5.182 12.91 1.923 22.443.943 24.814 6.087 6.556 9.766 14.926 9.766 25.16 0 36.021-22.207 43.947-43.363 46.267 3.41 2.895 6.448 8.617 6.448 17.366 0 12.53-.117 22.644-.117 25.718 0 2.51 1.708 5.428 6.53 4.513 37.707-12.428 64.892-47.545 64.892-88.96 0-51.787-42.523-93.766-94.975-93.766" fill="#181717"/></g></g></svg>
